<svg xmlns="http://www.w3.org/2000/svg" width="117" height="17.97" viewBox="0 0 117 17.97">
  <defs>
    <style>
      .cls-1 {
        fill-rule: evenodd;
      }
    </style>
  </defs>
  <path id="PLANET_TODAY" data-name="PLANET TODAY" class="cls-1" d="M982,7090.63h4.419v-6.95h1.187a5.767,5.767,0,0,0,2.346-.4,2.328,2.328,0,0,0,1.233-1.16,6.378,6.378,0,0,0,.336-2.41v-1.5a12.119,12.119,0,0,0-.173-2.4,2.87,2.87,0,0,0-.661-1.31,3.1,3.1,0,0,0-1.46-.83,10.356,10.356,0,0,0-2.776-.29H982v17.25Zm5.553-14.03a1.664,1.664,0,0,1,.273,1.15v1.42a2.293,2.293,0,0,1-.236,1.26,1.021,1.021,0,0,1-.845.3c-0.091,0-.2,0-0.326-0.01v-4.39A1.677,1.677,0,0,1,987.552,7076.6Zm5.238-3.22v17.25H999.9v-3.45H997.21v-13.8h-4.42Zm9.96,0-2.25,17.25h4.57l0.27-3.1h1.58l0.23,3.1h4.52l-2.53-17.25h-6.39Zm2.53,11.09c0.11-1.53.4-3.94,0.85-7.24,0.22,2.87.45,5.29,0.67,7.24h-1.52Zm13.31-11.09v7.77l-2.47-7.77h-3.7v17.25h3.7v-7.84l2.29,7.84h3.88v-17.25h-3.7Zm5.47,17.25h7.67v-3.45h-3.25v-3.8h2.76v-3.28h-2.76v-3.27h2.95v-3.45h-7.37v17.25Zm7.9-17.25v3.45h2.61v13.8h4.42v-13.8h2.62v-3.45h-9.65Zm13.7,0v3.45h2.61v13.8h4.42v-13.8h2.62v-3.45h-9.65Zm20.76,7.15a34.85,34.85,0,0,0-.13-3.73,4.114,4.114,0,0,0-2.53-3.33,6.367,6.367,0,0,0-2.45-.45,6.158,6.158,0,0,0-2.52.48,4.045,4.045,0,0,0-1.72,1.37,4.213,4.213,0,0,0-.75,1.98,34.5,34.5,0,0,0-.13,3.68v2.95c0,1.78.05,3.02,0.13,3.73a4.073,4.073,0,0,0,.79,1.97,4.024,4.024,0,0,0,1.75,1.36,6.331,6.331,0,0,0,2.45.45,6.158,6.158,0,0,0,2.52-.48,4.015,4.015,0,0,0,1.71-1.37,4.124,4.124,0,0,0,.76-1.98c0.08-.72.12-1.95,0.12-3.68v-2.95Zm-4.42,5.21a8.191,8.191,0,0,1-.13,1.93,0.622,0.622,0,0,1-1.14.05,8.022,8.022,0,0,1-.12-1.85v-8.06a3.871,3.871,0,0,1,.19-1.6,0.6,0.6,0,0,1,.53-0.27,0.526,0.526,0,0,1,.54.33,5.387,5.387,0,0,1,.13,1.54v7.93Zm6.07,4.89h5.57a11.434,11.434,0,0,0,2.37-.18,3.083,3.083,0,0,0,1.33-.61,2.474,2.474,0,0,0,.75-1.23,14.605,14.605,0,0,0,.21-3.11v-6.04a24.856,24.856,0,0,0-.14-3.28,3.142,3.142,0,0,0-.74-1.52,3.254,3.254,0,0,0-1.72-.98,20.11,20.11,0,0,0-4.33-.3h-3.3v17.25Zm5.4-14.14a0.69,0.69,0,0,1,.34.48,9.135,9.135,0,0,1,.07,1.5v6.7a5.748,5.748,0,0,1-.22,2.12,1.277,1.277,0,0,1-1.17.39v-11.35A2.008,2.008,0,0,1,1073.47,7076.49Zm7.73-3.11-2.25,17.25h4.57l0.26-3.1h1.58l0.24,3.1h4.52l-2.53-17.25h-6.39Zm2.53,11.09q0.165-2.3.84-7.24c0.23,2.87.45,5.29,0.68,7.24h-1.52Zm11.2-11.09q-0.855,4.035-1.23,6.8c-0.08-1.17-.44-3.43-1.07-6.8h-4.06l3.11,11.01v6.24h4.09v-6.24l3.22-11.01h-4.06Z" transform="translate(-982 -7073.03)"/>
</svg>
